<svg xmlns="http://www.w3.org/2000/svg" xmlns:xlink="http://www.w3.org/1999/xlink" viewBox="9227 -904 210 210">
  <defs>
    <style>
      .cls-1 {
        clip-path: url(#clip-imagem_list_desktop_b);
      }

      .cls-2 {
        fill: #ea4f12;
      }

      .cls-3 {
        fill: #e7cc9e;
        stroke-miterlimit: 10;
      }

      .cls-3, .cls-4, .cls-5, .cls-6, .cls-7 {
        stroke: #ea4f12;
      }

      .cls-3, .cls-6 {
        stroke-width: 2px;
      }

      .cls-4, .cls-5, .cls-6, .cls-7, .cls-9 {
        fill: none;
      }

      .cls-4 {
        stroke-width: 5px;
      }

      .cls-5 {
        stroke-width: 4px;
      }

      .cls-8 {
        stroke: none;
      }
    </style>
    <clipPath id="clip-imagem_list_desktop_b">
      <rect x="9227" y="-904" width="210" height="210"/>
    </clipPath>
  </defs>
  <g id="imagem_list_desktop_b" class="cls-1">
    <g id="Group_238" data-name="Group 238" transform="translate(1576 -2656)">
      <g id="Group_230" data-name="Group 230" transform="translate(7075.89 -689)">
        <path id="Path_430" data-name="Path 430" class="cls-2" d="M6236.566,2820.5c-36.211-1.449-126.982,11.587-124.568,120.223s204.717,72.423,198.923-11.1S6272.778,2821.945,6236.566,2820.5Z" transform="translate(-5531.841 -368.346)"/>
        <path id="Subtraction_1" data-name="Subtraction 1" class="cls-3" d="M35.836,158.089H20.388c-.224-.765-5.465-18.78-5.465-29.426,0-4.011-.143-8.029-.269-11.574-.221-6.235-.4-11.156.269-13.018.756-2.117,6.992-22.476,5.465-28.586C18.943,69.7,18.5,67.726,18.5,67.707,18.2,69.619,16.7,79.052,15.554,81.159c-.217,3.473-2.735,16.82-4.2,19.757-3.483,6.968-4.864,11.11-3.994,11.981.259.259.528.484.788.7a3.881,3.881,0,0,1,1.734,3.923c-.039.546-.085,1.07-.129,1.569-.193,2.19-.346,3.92.339,4.947.825,1.237.216,3.55.21,3.573L7.1,125.3l4.666,8.828-.184,0c-.981,0-4.336-.2-6.331-2.736C2.977,128.5.03,122.209,0,122.145a24.881,24.881,0,0,0,1.682-12.821C.6,102.152,1.09,83.422,4.2,79.477c.736-3.361,1.43-9.129,2.1-14.706s1.367-11.357,2.1-14.72c1.654-7.563,4.61-11.895,9.038-13.242,4.709-1.434,12.088-3.889,12.4-3.993V27.561C29.74,27.5,19.19,21.1,23.541,10.115,27.073,1.2,32.414,0,37.174,0c.409,0,.8.007,1.175.014.336.006.656.012.957.012,3.885,0,13.66,3.98,14.083,6.726a2.034,2.034,0,0,1-.417,1.708,4.138,4.138,0,0,1-2.736,1.024c.157.124,3.749,3.031,2.22,5.465-1.568,2.5,2.371,5.644,2.41,5.675-.009.052-.25,1.261-2.41,1.261a5.072,5.072,0,0,0,.1,2.629c.151.636.251,1.055-.1,1.155l-.749.21.749,2.523a3.883,3.883,0,0,1-3.482,2.1,37.8,37.8,0,0,1-4.2-.21l-.21,2.733c.509.141,12.3,3.448,15.554,5.885.447.336.9.645,1.356.954,3.024,2.057,5.874,4,6.421,12.919.265,4.328.76,8.907,1.2,12.947.617,5.7,1.149,10.626.9,13.312,2.5,4.592,2.733,6.475,2.733,10.314v22.91l2.1,11.771c-.217.354-5.31,8.645-7.357,9.668a11.554,11.554,0,0,1-3.69,1.3c-.152,0-.25-.03-.293-.09a.174.174,0,0,1-.01-.162c.162-.485,2.355-4.908,3.29-6.787-.356.605-.905,1.326-1.492,1.326a.833.833,0,0,1-.537-.214c-1.243-1.036-1.267-1.225-.631-5.044a26.193,26.193,0,0,0,.2-4.277c-.016-2.707-.03-5.262,1.48-5.812.472-.172.866-.3,1.191-.406,1.271-.413,1.5-.486,1.331-1.486-.069-.417-.988-2.42-2.15-4.956-2.38-5.194-5.976-13.038-6.258-15.853a105.781,105.781,0,0,1-.22-10.784c.006-.285.01-.48.01-.567,0-.626-2.913-10.826-2.943-10.929-.02.069-2.089,7.153-1.051,10.074s1.261,12.341,1.261,14.518a9,9,0,0,0,1.1,3.189,17.073,17.073,0,0,1,2.055,7.32c0,1.325.077,4.3.175,8.075.258,9.963.647,25.02.035,26.4-.83,1.867-5.626,19.37-5.675,19.546H40.3v-1.545c-.024-.272-2.389-27.2-3.973-27.2-.131,0-.254.182-.367.541-1.295,4.111-.478,20.856-.129,28.006l.01.2Z" transform="translate(645.654 2472.216)"/>
        <g id="Ellipse_34" data-name="Ellipse 34" class="cls-4" transform="translate(702.509 2526.002)">
          <circle class="cls-8" cx="6.035" cy="6.035" r="6.035"/>
          <circle class="cls-9" cx="6.035" cy="6.035" r="3.535"/>
        </g>
        <g id="Ellipse_35" data-name="Ellipse 35" class="cls-5" transform="translate(697.75 2521.242)">
          <circle class="cls-8" cx="10.795" cy="10.795" r="10.795"/>
          <circle class="cls-9" cx="10.795" cy="10.795" r="8.795"/>
        </g>
        <g id="Ellipse_36" data-name="Ellipse 36" class="cls-6" transform="translate(693.879 2517.372)">
          <circle class="cls-8" cx="14.665" cy="14.665" r="14.665"/>
          <circle class="cls-9" cx="14.665" cy="14.665" r="13.665"/>
        </g>
        <g id="Ellipse_37" data-name="Ellipse 37" class="cls-7" transform="translate(688.779 2512.272)">
          <circle class="cls-8" cx="19.766" cy="19.766" r="19.766"/>
          <circle class="cls-9" cx="19.766" cy="19.766" r="19.266"/>
        </g>
        <g id="Ellipse_38" data-name="Ellipse 38" class="cls-7" transform="translate(684.315 2507.808)">
          <circle class="cls-8" cx="24.229" cy="24.229" r="24.229"/>
          <circle class="cls-9" cx="24.229" cy="24.229" r="23.729"/>
        </g>
        <g id="Ellipse_34-2" data-name="Ellipse 34" class="cls-4" transform="translate(661.394 2575.194)">
          <circle class="cls-8" cx="6.035" cy="6.035" r="6.035"/>
          <circle class="cls-9" cx="6.035" cy="6.035" r="3.535"/>
        </g>
        <g id="Ellipse_35-2" data-name="Ellipse 35" class="cls-5" transform="translate(656.634 2570.434)">
          <circle class="cls-8" cx="10.795" cy="10.795" r="10.795"/>
          <circle class="cls-9" cx="10.795" cy="10.795" r="8.795"/>
        </g>
        <g id="Ellipse_36-2" data-name="Ellipse 36" class="cls-6" transform="translate(652.764 2566.564)">
          <circle class="cls-8" cx="14.665" cy="14.665" r="14.665"/>
          <circle class="cls-9" cx="14.665" cy="14.665" r="13.665"/>
        </g>
        <g id="Ellipse_37-2" data-name="Ellipse 37" class="cls-7" transform="translate(647.663 2561.463)">
          <circle class="cls-8" cx="19.766" cy="19.766" r="19.766"/>
          <circle class="cls-9" cx="19.766" cy="19.766" r="19.266"/>
        </g>
        <g id="Ellipse_38-2" data-name="Ellipse 38" class="cls-7" transform="translate(643.2 2557)">
          <circle class="cls-8" cx="24.229" cy="24.229" r="24.229"/>
          <circle class="cls-9" cx="24.229" cy="24.229" r="23.729"/>
        </g>
        <path id="Path_363" data-name="Path 363" class="cls-7" d="M0,0S.664,6.387,13.8,5.286" transform="translate(664.728 2531.797) rotate(-7)"/>
        <path id="Path_364" data-name="Path 364" class="cls-7" d="M14.108,0S13.429,6.387,0,5.286" transform="matrix(0.998, 0.07, -0.07, 0.998, 687.819, 2530.45)"/>
        <path id="Path_365" data-name="Path 365" class="cls-7" d="M3993.321,3436.7v8.443" transform="translate(-3329.328 -904.883)"/>
        <path id="Path_366" data-name="Path 366" class="cls-7" d="M4044.5,3439.992c.367,1.842.881,11.753.881,11.753" transform="translate(-3342.931 -905.758)"/>
      </g>
    </g>
  </g>
</svg>
