<svg xmlns="http://www.w3.org/2000/svg" xmlns:xlink="http://www.w3.org/1999/xlink" viewBox="9509 -580 210 210">
  <defs>
    <style>
      .cls-1 {
        clip-path: url(#clip-imagem_list_desktop_f);
      }

      .cls-2, .cls-5 {
        fill: #ea4f12;
      }

      .cls-3 {
        fill: #e28f5d;
        opacity: 0.62;
      }

      .cls-4 {
        fill: #e7cc9e;
      }

      .cls-10, .cls-11, .cls-12, .cls-4, .cls-6, .cls-7, .cls-8, .cls-9 {
        stroke: #ea4f12;
      }

      .cls-4, .cls-5, .cls-6, .cls-7, .cls-8 {
        stroke-miterlimit: 10;
      }

      .cls-5 {
        stroke: #e7cc9e;
        stroke-width: 3px;
      }

      .cls-10, .cls-11, .cls-12, .cls-14, .cls-6, .cls-7, .cls-8, .cls-9 {
        fill: none;
      }

      .cls-6 {
        stroke-width: 1.5px;
      }

      .cls-11, .cls-8 {
        stroke-width: 2px;
      }

      .cls-9 {
        stroke-width: 5px;
      }

      .cls-10 {
        stroke-width: 4px;
      }

      .cls-13 {
        stroke: none;
      }
    </style>
    <clipPath id="clip-imagem_list_desktop_f">
      <rect x="9509" y="-580" width="210" height="210"/>
    </clipPath>
  </defs>
  <g id="imagem_list_desktop_f" class="cls-1">
    <g id="Group_240" data-name="Group 240" transform="translate(1398 -3057)">
      <path id="Path_845" data-name="Path 845" class="cls-2" d="M124.615.1C88.4-1.348-2.367,11.688.047,120.323s204.717,72.423,198.923-11.105S160.827,1.549,124.615.1Z" transform="matrix(0.391, 0.921, -0.921, 0.391, 8263.965, 2453.197)"/>
      <path id="Path_847" data-name="Path 847" class="cls-3" d="M.148.014C.081-.034,0,.052,0,.151A2.052,2.052,0,0,0,1.83,2.266c1.378.295,3.092.5,4.112.615.132.016.172-.231.047-.288C4.383,1.875,2.614,1.808.148.014Z" transform="translate(8162.705 2586.037) rotate(-9)"/>
      <path id="Path_848" data-name="Path 848" class="cls-4" d="M67.866,10.826s-20.795-8.534-37.96,0S16.467,27.6,17.252,28.286c0,0-6.474,12.653-5.1,20.795s2.658,6.474-.191,10.2-2.54,5.681-4.7,7.348-1.982,4.992,0,6.094,5.184.094,5.184,1.173.343,2.462.012,3.124-1.214,3.6,2.1,4.267a2.546,2.546,0,0,0-.037,4.046c.552.4,3.237,2.1,3.237,2.1s-2.428,7.725,3.311,9.748,15.743-1.14,15.743-1.14,3.016-.993,4.3,1.508,6.253,13.794,6.989,16.663.589,7.725-.147,8.423c0,0-4.706,3.794-5.245,5.608S32.8,141.385,32.8,141.385l-1.471,1.486H98.447a192.257,192.257,0,0,0-9.122-20.147,154.935,154.935,0,0,1-9.613-20.3c-1.177-3.531-3.924-16.479-3.924-16.479s16.773,4.12,18.146-16.381c6.082,2.845,13.831,1.766,13.732-6.376,3.041-2.158,15.008-25.307,5.2-36.391s-19.422-2.746-21.285-1.864c-1.864,1.471-5.395,3.629-5.395,3.629S81.328,15.951,67.866,10.826Z" transform="translate(8149.486 2507.751)"/>
      <path id="Path_850" data-name="Path 850" class="cls-5" d="M508.792,27.69c-9.809-11.084-19.422-2.746-21.285-1.864-1.864,1.471-5.395,3.629-5.395,3.629s-4.855-12.6-18.318-17.73c0,0-20.795-8.534-37.96,0-10.216,5.079-14.811,10.741-12.906,17.094,1.756,2.043,5.213.723,14.328,1.9,17.8,2.29,12.945,10.38,10.738,11.7s-10.15,4.414-5.591,8.384,5.3,16.182,11.915,12.8,9.12-9.267,15.447-5.3,2.207,17.281,4.561,22.467c1.02,2.251,3.9,4.465,8.482,6.253,3.747.5,15.893.745,17.053-16.572,6.082,2.845,13.831,1.766,13.732-6.376C506.634,61.923,518.6,38.774,508.792,27.69Z" transform="translate(7753.559 2506.873)"/>
      <path id="Path_851" data-name="Path 851" class="cls-2" d="M274.494,1735.265a.812.812,0,0,0-.726.768c-.027.508.1,1.091.836,1.008,1.275-.147,3.237-1.422,6.915.638,1.422.441.932-.1,0-.687C280.624,1736.425,279.514,1734.735,274.494,1735.265Z" transform="translate(7890.54 822.547)"/>
      <path id="Path_852" data-name="Path 852" class="cls-6" d="M401.939,1928.9s3.061.687,3.5,2.331a9.775,9.775,0,0,1-3.918,2.192" transform="translate(7766.207 633.562)"/>
      <path id="Path_853" data-name="Path 853" class="cls-6" d="M432.53,1955.7s-.932,3.22.226,4.373C433.755,1959.236,432.886,1955.849,432.53,1955.7Z" transform="translate(7735.354 606.802)"/>
      <path id="Path_849" data-name="Path 849" class="cls-7" d="M299.059,2581.7s1.687,2.5-1.059,2.6" transform="translate(7865.255 -4.513)"/>
      <path id="Path_854" data-name="Path 854" class="cls-2" d="M306.114,3045.452s-1.447,1.422-.907,2.452,5.2-2.832,5.692-2.857A17.166,17.166,0,0,0,306.114,3045.452Z" transform="translate(7859.173 -456.128)"/>
      <path id="Path_855" data-name="Path 855" class="cls-8" d="M14.435,0S9.225,10.646,0,13.518" transform="matrix(0.978, 0.208, -0.208, 0.978, 8186.431, 2592.697)"/>
      <path id="Path_856" data-name="Path 856" class="cls-8" d="M1823.353,2096.219s4.9-2.982,6.866,2.021-7.062,12.261-7.847,12.948-3.727,2.158-4.9-2.06,4.316-2.55,5.591-3.335" transform="translate(6383.209 470.657)"/>
      <g id="Group_236" data-name="Group 236" transform="translate(8193.458 2608.815)">
        <g id="Ellipse_34" data-name="Ellipse 34" class="cls-9" transform="translate(20.399 20.4)">
          <circle class="cls-13" cx="6.766" cy="6.766" r="6.766"/>
          <circle class="cls-14" cx="6.766" cy="6.766" r="4.266"/>
        </g>
        <g id="Ellipse_35" data-name="Ellipse 35" class="cls-10" transform="translate(15.062 15.062)">
          <circle class="cls-13" cx="12.103" cy="12.103" r="12.103"/>
          <circle class="cls-14" cx="12.103" cy="12.103" r="10.103"/>
        </g>
        <g id="Ellipse_36" data-name="Ellipse 36" class="cls-11" transform="translate(10.723 10.723)">
          <circle class="cls-13" cx="16.442" cy="16.442" r="16.442"/>
          <circle class="cls-14" cx="16.442" cy="16.442" r="15.442"/>
        </g>
        <g id="Ellipse_37" data-name="Ellipse 37" class="cls-12" transform="translate(5.004 5.004)">
          <circle class="cls-13" cx="22.161" cy="22.161" r="22.161"/>
          <circle class="cls-14" cx="22.161" cy="22.161" r="21.661"/>
        </g>
        <g id="Ellipse_38" data-name="Ellipse 38" class="cls-12" transform="translate(0)">
          <circle class="cls-13" cx="27.166" cy="27.166" r="27.166"/>
          <circle class="cls-14" cx="27.166" cy="27.166" r="26.666"/>
        </g>
      </g>
    </g>
  </g>
</svg>
