<svg xmlns="http://www.w3.org/2000/svg" xmlns:xlink="http://www.w3.org/1999/xlink" viewBox="8945 -580 210 210">
  <defs>
    <style>
      .cls-1 {
        clip-path: url(#clip-imagem_list_desktop_d);
      }

      .cls-2 {
        fill: #9b14b4;
      }

      .cls-3 {
        fill: #e7cc9e;
      }

      .cls-11, .cls-4, .cls-5, .cls-6, .cls-7, .cls-8, .cls-9 {
        fill: none;
      }

      .cls-4, .cls-5 {
        stroke: #9b14b4;
      }

      .cls-4 {
        stroke-miterlimit: 10;
      }

      .cls-4, .cls-5, .cls-8 {
        stroke-width: 2px;
      }

      .cls-6, .cls-7, .cls-8, .cls-9 {
        stroke: #e7cc9e;
      }

      .cls-6 {
        stroke-width: 5px;
      }

      .cls-7 {
        stroke-width: 4px;
      }

      .cls-10 {
        stroke: none;
      }
    </style>
    <clipPath id="clip-imagem_list_desktop_d">
      <rect x="8945" y="-580" width="210" height="210"/>
    </clipPath>
  </defs>
  <g id="imagem_list_desktop_d" class="cls-1">
    <g id="Group_242" data-name="Group 242" transform="translate(1707 -3057.994)">
      <g id="Group_243" data-name="Group 243" transform="translate(-2 -356)">
        <path id="Path_843" data-name="Path 843" class="cls-2" d="M114.1,0C41.315,0-32.682,38.456,15.234,123.727S123.2,201.753,168.08,180.017,186.882,0,114.1,0Z" transform="matrix(0.259, -0.966, 0.966, 0.259, 7225, 3012.72)"/>
        <g id="Group_233" data-name="Group 233" transform="translate(7277.453 2871.23)">
          <path id="Path_374" data-name="Path 374" class="cls-3" d="M33.17,15.571c-.531.316-30.2,23.67-27.547,44.483s7.591,24.282,13.692,30.812,11.61,18.977,9.978,26.322-6.734,24.69-6.734,24.69H86.427s-1.836-14.284,7.346-13.467,27.139,5.509,28.771-2.04,0-8.366,0-8.366,1.02-4.285,2.449-6.121a5.916,5.916,0,0,0,1.224-3.877s2.469-3.061.01-4.9a44.155,44.155,0,0,1,.194-6.53s10.611.2,10.2-4.693-4.9-11.631-7.346-15.1-7.55-3.877-5.917-9.59,1.224-5.713-1.632-11.019l-2.857-5.305S117.035,26.59,107.444,20.06C96.63,10.674,67.654-4.834,33.17,15.571Z" transform="translate(-5.455 -5.535)"/>
          <path id="Path_375" data-name="Path 375" class="cls-4" d="M10.254,0S7.193,4.285,0,4.744" transform="translate(111.65 64.588) rotate(180)"/>
          <path id="Path_376" data-name="Path 376" class="cls-4" d="M1009.554,624.2s-10.254,3.357-10.254,5.05h9.641" transform="translate(-897.903 -561.081)"/>
          <path id="Path_377" data-name="Path 377" class="cls-4" d="M1079.414,635.2s2.112,2.112,0,3.6C1077.782,637.312,1079.414,635.2,1079.414,635.2Z" transform="translate(-969.192 -570.958)"/>
          <path id="Path_378" data-name="Path 378" class="cls-2" d="M1018.01,539.014s2.173,3.377-.276,2.5-9.182-3.591-13.335-.4C1007.6,536.636,1012.021,536.565,1018.01,539.014Z" transform="translate(-902.483 -483.138)"/>
          <path id="Path_379" data-name="Path 379" class="cls-2" d="M6429.554,3261.827s-7.142-1.327-11.019-1.123,8.774-2.244,10.509-1.939S6429.554,3261.827,6429.554,3261.827Z" transform="translate(-6309.349 -3160.21)"/>
          <path id="Path_380" data-name="Path 380" class="cls-5" d="M6513.895,3136.8s-.2-2.245-2.754-1.02-2.041,2.143-2.449,2.143-2.347.714-1.734-2.143" transform="translate(-6390.444 -3048.145)"/>
        </g>
        <path id="Path_844" data-name="Path 844" class="cls-2" d="M93.408,49.718s4.132-2.857,6.069-10.741,1.517-10.144-1.366-14.918-1.562-7.918-11.228-13.874C81.968,4.817,80.511,6.606,75.5,4.517S72.483.145,64.58.937C55.071-5.092,38.634-1.6,37.572.788,30.3-.562,22.4,4.816,19.517,8.843,11.612,10.055,9.351,20.33,9.351,20.33S1.7,26.759,1.613,34.651s.152,8.8,0,9.547S-1.421,52.1.854,55.238c2.759,8.611,9.625,7.31,9.625,7.31s.353,6.081,3.539,9.512,11.871,2.124,12.326,2.124-1.591,2.479,5.581,3.729,6.709,0,6.709,0l-1.821,18.2L35.3,115.505s-.607,1.939,1.669,1.939a1.767,1.767,0,0,0,1.821-2.238,88.724,88.724,0,0,1,1.821-15.216c1.821-9.4,6.676-27.15,8.345-29.537s3.713.19,6.373-5.072c5.766,1.641,13.113,1.044,16.451-5.072s.39-9.249,7.673-8.652A35.966,35.966,0,0,0,93.408,49.718Z" transform="translate(7282.693 2879.579)"/>
        <g id="Group_234" data-name="Group 234" transform="translate(7304.273 2891.999)">
          <g id="Ellipse_34" data-name="Ellipse 34" class="cls-6" transform="translate(18.587 18.587)">
            <circle class="cls-10" cx="6.165" cy="6.165" r="6.165"/>
            <circle class="cls-11" cx="6.165" cy="6.165" r="3.665"/>
          </g>
          <g id="Ellipse_35" data-name="Ellipse 35" class="cls-7" transform="translate(13.724 13.724)">
            <circle class="cls-10" cx="11.028" cy="11.028" r="11.028"/>
            <circle class="cls-11" cx="11.028" cy="11.028" r="9.028"/>
          </g>
          <g id="Ellipse_36" data-name="Ellipse 36" class="cls-8" transform="translate(9.77 9.77)">
            <circle class="cls-10" cx="14.981" cy="14.981" r="14.981"/>
            <circle class="cls-11" cx="14.981" cy="14.981" r="13.981"/>
          </g>
          <g id="Ellipse_37" data-name="Ellipse 37" class="cls-9" transform="translate(4.56 4.56)">
            <circle class="cls-10" cx="20.192" cy="20.192" r="20.192"/>
            <circle class="cls-11" cx="20.192" cy="20.192" r="19.692"/>
          </g>
          <g id="Ellipse_38" data-name="Ellipse 38" class="cls-9" transform="translate(0)">
            <circle class="cls-10" cx="24.752" cy="24.752" r="24.752"/>
            <circle class="cls-11" cx="24.752" cy="24.752" r="24.252"/>
          </g>
        </g>
        <path id="Path_846" data-name="Path 846" class="cls-5" d="M3670.5,3914.7s4.7,7.416,16.666,11.233" transform="translate(3680.919 -931.357)"/>
      </g>
    </g>
  </g>
</svg>
