<svg xmlns="http://www.w3.org/2000/svg" xmlns:xlink="http://www.w3.org/1999/xlink" viewBox="9509 -904 210 210">
  <defs>
    <style>
      .cls-1 {
        clip-path: url(#clip-imagem_list_desktop_c);
      }

      .cls-2, .cls-4, .cls-7, .cls-8 {
        fill: #9b14b4;
      }

      .cls-3, .cls-5 {
        fill: #e7cc9e;
      }

      .cls-10, .cls-11, .cls-12, .cls-3, .cls-5, .cls-6, .cls-7, .cls-9 {
        stroke: #9b14b4;
      }

      .cls-3, .cls-4, .cls-5, .cls-6, .cls-7, .cls-8 {
        stroke-miterlimit: 10;
      }

      .cls-4, .cls-8 {
        stroke: #e7cc9e;
      }

      .cls-4 {
        stroke-width: 3px;
      }

      .cls-11, .cls-5 {
        stroke-width: 2px;
      }

      .cls-10, .cls-11, .cls-12, .cls-14, .cls-6, .cls-9 {
        fill: none;
      }

      .cls-9 {
        stroke-width: 5px;
      }

      .cls-10 {
        stroke-width: 4px;
      }

      .cls-13 {
        stroke: none;
      }
    </style>
    <clipPath id="clip-imagem_list_desktop_c">
      <rect x="9509" y="-904" width="210" height="210"/>
    </clipPath>
  </defs>
  <g id="imagem_list_desktop_c" class="cls-1">
    <g id="Group_239" data-name="Group 239" transform="translate(1398 -2653.66)">
      <path id="Path_842" data-name="Path 842" class="cls-2" d="M114.1,0C41.315,0-32.682,38.456,15.234,123.727S123.2,201.753,168.08,180.017,186.882,0,114.1,0Z" transform="matrix(-0.259, 0.966, -0.966, -0.259, 8334.853, 1787.934)"/>
      <g id="Group_231" data-name="Group 231" transform="translate(8151.679 1795.534)">
        <path id="Subtraction_2" data-name="Subtraction 2" class="cls-3" d="M115.564,86.405h0l-17.139-.141c-.488-1.8-1.26-4.95-.953-5.865-1.446-2.23-5.542-14.337-5.645-17.29-1,7.036-3.756,8.936-3.784,8.954l-.907,14.107L28.7,85.689a6.479,6.479,0,0,1-1.307-3.7c0-.763-.014-1.857-.03-3.052-.036-2.688-.08-6.034.03-7.024.156-1.406-4.95-8.53-5-8.6-.3,1.709-2.958,16.385-4.287,17.418V85.6L0,85.452c.069-.557.729-5.419,2.52-6.612-.313-3.6,1.053-22.124,5.2-28.655.011-.513.019-1.067.028-1.655v-.084c.119-7.819.34-22.372,7.213-24.712,7.334-2.5,8.725-2.831,8.738-2.834.126-.071,12.722-7.1,16.453-8.5a10.07,10.07,0,0,0,5.2-4.094V.047c.04.091,4.086,9.169,11.525,9.169.164,0,.328,0,.5-.013C65.4,8.961,69.394.09,69.433,0V7.841c.057.043,6,4.577,8.029,5.825a35,35,0,0,0,4.3,1.778c3.886,1.457,8.722,3.27,9.556,4.834l.756.259c3.847,1.31,11.007,3.749,12.627,9.345a92.919,92.919,0,0,1,3.149,20.31c2.52,5.67,3.938,23.2,4.093,27.4,3.238,4.933,3.608,8.66,3.622,8.816Z" transform="translate(0 43.809)"/>
        <path id="Path_362" data-name="Path 362" class="cls-2" d="M747.7,821c-5.622-14.375-23.932-2.865-23.932-2.865l-.963-1.26s13.285-10,22.719-2.44,8.087,47,8.087,47l.067,15.115H748.7S748.812,827.5,747.7,821Z" transform="translate(-692.268 -746.344)"/>
        <path id="Path_350" data-name="Path 350" class="cls-4" d="M730.48,797.906l-1.181,1.732s-13.934-11.257-20.31.039-4.936,59.632-4.936,59.632-5.062-52.035,2.81-60.695S722.529,792.316,730.48,797.906Z" transform="translate(-647.349 -729.102)"/>
        <path id="Path_351" data-name="Path 351" class="cls-2" d="M390.437,810.491c-.441.291.866,1.417.866,1.417s17.52-10.8,23.5,6.2c-.734,23.348-.734,53.157-.734,53.157H417.6s-.071-52.413-.567-55.436C416.132,810.342,405.118,800.935,390.437,810.491Z" transform="translate(-359.814 -741.53)"/>
        <path id="Path_347" data-name="Path 347" class="cls-5" d="M536.572,2.5s-16.212.334-16.546,15.543,0,11.532,0,11.532-2.34-1.337-1.5,3.51a53.6,53.6,0,0,0,2.674,9.443s4.847,14.958,15.376,14.29,14.373-14.29,14.373-14.29,4.011-4.763,3.844-10.78c.008-4.513-2.173-2.081-2.173-2.081S559.636,2.5,536.572,2.5Z" transform="translate(-478.548 -2.5)"/>
        <path id="Path_349" data-name="Path 349" class="cls-2" d="M727.689,821c4.6-14.375,19.57-2.865,19.57-2.865l.787-1.26s-10.864-10-18.578-2.44-6.613,47-6.613,47l-.055,15.115h4.07S726.775,827.5,727.689,821Z" transform="translate(-666.096 -746.344)"/>
        <path id="Path_352" data-name="Path 352" class="cls-6" d="M963.953,1106.778s-.945-18.185.866-22.278c-1.653,7.715-.15,15.272-17.319,15.9" transform="translate(-873.108 -997.748)"/>
        <path id="Path_353" data-name="Path 353" class="cls-7" d="M950.082,1191.921s-2.669.307-2.6,2.039,1.889,2.133,3.621,2.055a2.691,2.691,0,0,0,2.677-2.346C953.7,1192.865,952.994,1191.606,950.082,1191.921Z" transform="translate(-873.091 -1096.667)"/>
        <path id="Path_354" data-name="Path 354" class="cls-7" d="M410.882,1199.721s-2.669.307-2.6,2.039,1.889,2.133,3.621,2.055a2.691,2.691,0,0,0,2.677-2.346C414.5,1200.666,413.794,1199.406,410.882,1199.721Z" transform="translate(-376.338 -1103.853)"/>
        <path id="Path_355" data-name="Path 355" class="cls-6" d="M263.6,1113.644a39.742,39.742,0,0,0-1.1-23.144c2.755,8.5,5.432,15.43,17.083,15.272s13.454-3.141,13.454-3.141" transform="translate(-242.032 -1003.275)"/>
        <path id="Path_356" data-name="Path 356" class="cls-2" d="M651.8,519.125l.213-.094c1.33-1.354,7.085-2.826,10.021.094Z" transform="translate(-599.524 -475.324)"/>
        <path id="Path_357" data-name="Path 357" class="cls-6" d="M676.5,446.5a4.583,4.583,0,0,0,3.519,1.519,4.631,4.631,0,0,0,3.409-1.519" transform="translate(-622.022 -409.972)"/>
        <path id="Path_358" data-name="Path 358" class="cls-6" d="M594.2,335.592s-3.306-2.732-6.4,0A5.188,5.188,0,0,0,594.2,335.592Z" transform="translate(-540.297 -306.677)"/>
        <path id="Path_359" data-name="Path 359" class="cls-6" d="M769.4,335.674s3.133-2.928,6.392-.4A5.2,5.2,0,0,1,769.4,335.674Z" transform="translate(-707.601 -306.554)"/>
        <path id="Path_428" data-name="Path 428" class="cls-8" d="M676.045,950.682c.535,3.377,6.14,9.289,12.281,10s8.9-1.181,8.974-3.779-1.1-7.636-3.385-9.6-.787-1.181-2.519-3.621-1.5-1.889-1.732-2.44a2.645,2.645,0,0,1,0-1.417s2.047.551,2.2,0-.157-2.519-.394-2.519h-3.228s-1.653,6.3-.945,8.9c-.787-1.023-.394-8.974.236-9.525s3.621,0,3.621,0,1.26-3.936-1.811-3.621-6.455.866-6.455,10c-1.26-1.968.417-9.179,2.519-9.447-.236-1.417-.315-2.834-.315-2.834h2.677s.787-3.306-1.1-5.51a10.059,10.059,0,0,0-3.228-2.755s-3.936,4.172-3.621,8.5-3.385,8.9-.551,12.438C679.115,944.857,675.179,945.251,676.045,950.682Z" transform="translate(-623.642 -849.235)"/>
      </g>
      <g id="Group_232" data-name="Group 232" transform="translate(8187.655 1868.734)">
        <g id="Ellipse_34" data-name="Ellipse 34" class="cls-9" transform="translate(20.399 20.4)">
          <circle class="cls-13" cx="6.766" cy="6.766" r="6.766"/>
          <circle class="cls-14" cx="6.766" cy="6.766" r="4.266"/>
        </g>
        <g id="Ellipse_35" data-name="Ellipse 35" class="cls-10" transform="translate(15.062 15.062)">
          <circle class="cls-13" cx="12.103" cy="12.103" r="12.103"/>
          <circle class="cls-14" cx="12.103" cy="12.103" r="10.103"/>
        </g>
        <g id="Ellipse_36" data-name="Ellipse 36" class="cls-11" transform="translate(10.723 10.723)">
          <circle class="cls-13" cx="16.442" cy="16.442" r="16.442"/>
          <circle class="cls-14" cx="16.442" cy="16.442" r="15.442"/>
        </g>
        <g id="Ellipse_37" data-name="Ellipse 37" class="cls-12" transform="translate(5.004 5.004)">
          <circle class="cls-13" cx="22.161" cy="22.161" r="22.161"/>
          <circle class="cls-14" cx="22.161" cy="22.161" r="21.661"/>
        </g>
        <g id="Ellipse_38" data-name="Ellipse 38" class="cls-12" transform="translate(0 0)">
          <circle class="cls-13" cx="27.166" cy="27.166" r="27.166"/>
          <circle class="cls-14" cx="27.166" cy="27.166" r="26.666"/>
        </g>
      </g>
    </g>
  </g>
</svg>
