<svg xmlns="http://www.w3.org/2000/svg" xmlns:xlink="http://www.w3.org/1999/xlink" viewBox="8945 -904 210 210">
  <defs>
    <style>
      .cls-1 {
        clip-path: url(#clip-imagem_list_desktop_a);
      }

      .cls-2, .cls-5 {
        fill: #14b4b4;
      }

      .cls-10, .cls-3, .cls-6, .cls-7, .cls-8, .cls-9 {
        fill: none;
      }

      .cls-4 {
        fill: #e7cc9e;
      }

      .cls-5 {
        stroke: #e7cc9e;
      }

      .cls-5, .cls-6 {
        stroke-miterlimit: 10;
      }

      .cls-5, .cls-8 {
        stroke-width: 4px;
      }

      .cls-10, .cls-6, .cls-7, .cls-8, .cls-9 {
        stroke: #14b4b4;
      }

      .cls-6, .cls-9 {
        stroke-width: 2px;
      }

      .cls-7 {
        stroke-width: 5px;
      }

      .cls-11 {
        stroke: none;
      }
    </style>
    <clipPath id="clip-imagem_list_desktop_a">
      <rect x="8945" y="-904" width="210" height="210"/>
    </clipPath>
  </defs>
  <g id="imagem_list_desktop_a" class="cls-1">
    <g id="Group_237" data-name="Group 237" transform="translate(1707 -2653.443)">
      <path id="Path_841" data-name="Path 841" class="cls-2" d="M6072.29,2806.506c-26.908,1.718-109.923-5.152-100.191,87.023s41.222,111.068,90.458,108.206,117.938-38.359,102.48-96.755S6099.2,2804.789,6072.29,2806.506Z" transform="translate(1273.69 -1050.012)"/>
      <g id="Group_228" data-name="Group 228" transform="translate(7272.884 1783.216)">
        <path id="Path_331" data-name="Path 331" class="cls-3" d="M20.971,145.867a39.05,39.05,0,0,0,5.059-23.754c-1.54-13.637-17.6-29.253-20.015-40.471s-5.059-30.793,2.2-43.11S25.59,8.839,40.106,7.079,59.022,5.319,65.181,4,88.715,4,93.774,8.839s18.7,6.818,20.235,13.857a37.25,37.25,0,0,1,0,14.077s5.939,12.317,5.719,18.476c3.739,5.279,3.519,9.678,1.32,13.637a9.942,9.942,0,0,0,1.584,11.437c2.584,2.639,11.393,11.877,10.514,16.716s-11,5.5-11,5.5,2.2,5.279.66,8.578a9.836,9.836,0,0,1-3.519,4.4s3.3,1.54,1.98,3.519-5.279.66-5.279.66l3.519,7.918s3.959,8.578-4.4,10.118-27.494-.88-27.494,8.138" transform="translate(-3.483 -3.518)"/>
        <path id="Path_332" data-name="Path 332" class="cls-4" d="M20.971,145.867a39.05,39.05,0,0,0,5.059-23.754c-1.54-13.637-17.6-29.253-20.015-40.471s-5.059-30.793,2.2-43.11S25.59,8.839,40.106,7.079,59.022,5.319,65.181,4,88.715,4,93.774,8.839s18.7,6.818,20.235,13.857a37.25,37.25,0,0,1,0,14.077s5.939,12.317,5.719,18.476c3.739,5.279,3.519,9.678,1.32,13.637a9.942,9.942,0,0,0,1.584,11.437c2.584,2.639,11.393,11.877,10.514,16.716s-11,5.5-11,5.5,2.2,5.279.66,8.578a9.836,9.836,0,0,1-3.519,4.4s3.3,1.54,1.98,3.519-5.279.66-5.279.66l3.519,7.918s3.959,8.578-4.4,10.118-27.494-.88-27.494,8.138" transform="translate(-3.483 -3.518)"/>
        <path id="Path_333" data-name="Path 333" class="cls-5" d="M114.317,34.925a36.474,36.474,0,0,0-.308-12.229c-1.54-7.038-15.176-9.018-20.235-13.857S71.339,2.68,65.181,4,54.623,5.319,40.106,7.079,15.472,26.215,8.214,38.532s-4.619,31.893-2.2,43.11S24.49,108.476,26.03,122.112c.11.968,1.213,6.161,1.246,7.085,2.057-2.133,4.462-10.3,6.661-14.585,3.3-6.434,1.32-28.208.99-32.827s1.485-15.506,12.042-17.816,16.826,4.619,17.156,9.4S66.6,76.7,66.6,76.7a22.031,22.031,0,0,1,3.959-.033c2.474.165,2.145-.165,2.309-4.949S83.59,56.711,83.59,56.711s-4.324-5.85-4.262-21.509c.008-2.117.1-4.474.3-7.03C89.419,24.873,105.783,31.108,114.317,34.925Z" transform="translate(-3.483 -3.518)"/>
        <path id="Path_334" data-name="Path 334" class="cls-2" d="M942.019,555.1s-10.471-5.169-16.519,0c5.939-.539,14.367,3.706,14.367,3.706Z" transform="translate(-824.102 -492.589)"/>
        <path id="Path_335" data-name="Path 335" class="cls-6" d="M1028.633,873.569s2.716-.88,1.4-1.76-5.2,1.837-6.741,3.222-5.719.121-5.136-1.694" transform="translate(-906.515 -776.167)"/>
        <path id="Path_336" data-name="Path 336" class="cls-2" d="M982.7,962.651s-3.163-.311-7.958,3.285-4.938,2.716-4.938,2.716l9.371-.128C979.171,968.514,982.784,964.982,982.7,962.651Z" transform="translate(-863.53 -857.162)"/>
        <path id="Path_337" data-name="Path 337" class="cls-6" d="M664.958,1090.25s-40.168-6.184-41.058-19.55" transform="translate(-555.67 -953.337)"/>
        <path id="Path_338" data-name="Path 338" class="cls-6" d="M931.456,643.2s-10.854,4.839-9.678,5.136,8.853.517,8.853.517" transform="translate(-820.71 -572.851)"/>
        <path id="Path_339" data-name="Path 339" class="cls-6" d="M915.333,623.2a64.177,64.177,0,0,0-10.833,4.619" transform="translate(-805.411 -555.051)"/>
        <path id="Path_340" data-name="Path 340" class="cls-6" d="M997.788,653.4s1.463,1.979.242,3.409A2.618,2.618,0,0,1,997.788,653.4Z" transform="translate(-887.955 -581.93)"/>
        <path id="Path_341" data-name="Path 341" class="cls-6" d="M329.891,600.093s-8.138-11.7-17.409-5.851-3.563,18.19,0,21.192a27.931,27.931,0,0,1,8.413,11.844c1.639,4.707,2.573,7.346,7.137,6.422s3.64-6.917,3.64-6.917" transform="translate(-274.022 -527.82)"/>
      </g>
      <g id="Group_229" data-name="Group 229" transform="translate(7292.602 1838.008)">
        <g id="Ellipse_34" data-name="Ellipse 34" class="cls-7" transform="translate(23.073 23.073)">
          <circle class="cls-11" cx="7.653" cy="7.653" r="7.653"/>
          <circle class="cls-3" cx="7.653" cy="7.653" r="5.153"/>
        </g>
        <g id="Ellipse_35" data-name="Ellipse 35" class="cls-8" transform="translate(17.037 17.037)">
          <circle class="cls-11" cx="13.69" cy="13.69" r="13.69"/>
          <circle class="cls-3" cx="13.69" cy="13.69" r="11.69"/>
        </g>
        <g id="Ellipse_36" data-name="Ellipse 36" class="cls-9" transform="translate(12.129 12.129)">
          <circle class="cls-11" cx="18.598" cy="18.598" r="18.598"/>
          <circle class="cls-3" cx="18.598" cy="18.598" r="17.598"/>
        </g>
        <g id="Ellipse_37" data-name="Ellipse 37" class="cls-10" transform="translate(5.66 5.66)">
          <circle class="cls-11" cx="25.066" cy="25.066" r="25.066"/>
          <circle class="cls-3" cx="25.066" cy="25.066" r="24.566"/>
        </g>
        <g id="Ellipse_38" data-name="Ellipse 38" class="cls-10" transform="translate(0 0)">
          <circle class="cls-11" cx="30.726" cy="30.726" r="30.726"/>
          <circle class="cls-3" cx="30.726" cy="30.726" r="30.226"/>
        </g>
      </g>
    </g>
  </g>
</svg>
